<svg width="16" height="16" viewBox="0 0 16 16" fill="none" xmlns="http://www.w3.org/2000/svg">
<path d="M1.6 0C0.7136 0 0 0.7136 0 1.6V14.4C0 15.2864 0.7136 16 1.6 16H14.4C15.2864 16 16 15.2864 16 14.4V1.6C16 0.7136 15.2864 0 14.4 0H1.6ZM2.53 1.637H13.519C14.0202 1.637 14.424 2.04083 14.424 2.542V13.535C14.424 14.0362 14.0202 14.439 13.519 14.439H2.53C2.02883 14.439 1.626 14.0362 1.626 13.535V2.542C1.626 2.04083 2.02883 1.637 2.53 1.637Z" fill="#9F9FA9"/>
<path d="M7.03562 7.7725C7.03562 7.7725 7.98156 7.70063 7.98156 6.56875C7.98156 5.43781 7.34 4.88031 6.35938 4.88031L3 4.875V11.125H6.4375C6.4375 11.125 8.15625 11.1794 8.15625 9.25C8.15625 9.25 8.2825 7.7725 7.03562 7.7725ZM4.25 5.8125H5.96875C5.96875 5.8125 6.55687 5.82219 6.55687 6.58469C6.55687 7.375 5.96875 7.375 5.96875 7.375H4.25V5.8125ZM6.125 10.1875H4.25V8.3125H6.125C6.125 8.3125 7.0625 8.32219 7.0625 9.25C7.0625 10.1778 6.26 10.1875 6.125 10.1875Z" fill="#9F9FA9"/>
<path d="M10.8125 6.4375C8.46466 6.4375 8.46873 8.78125 8.46873 8.78125C8.46873 8.78125 8.31248 11.125 10.8125 11.125C10.8125 11.125 13 11.125 13 9.25H11.75C11.75 9.25 11.75 10.1875 10.8125 10.1875C10.8125 10.1875 9.87498 10.1875 9.87498 8.9375C9.87498 8.9375 12.375 8.9375 13 8.9375C13 8.3125 13 6.4375 10.8125 6.4375ZM9.87498 8.3125C9.87498 8.3125 9.85435 7.375 10.8125 7.375C11.7703 7.375 11.75 8.3125 11.75 8.3125H9.87498Z" fill="#9F9FA9"/>
<path d="M12.0625 5.5H9.5625V6.125H12.0625V5.5Z" fill="#9F9FA9"/>
</svg>
