<svg width="17" height="16" viewBox="0 0 17 16" fill="none" xmlns="http://www.w3.org/2000/svg">
<circle cx="12.6446" cy="3.89188" r="0.96" fill="#9F9FA9"/>
<path fill-rule="evenodd" clip-rule="evenodd" d="M4.5 8C4.5 10.206 6.294 12 8.5 12C10.706 12 12.5 10.206 12.5 8C12.5 5.794 10.706 4 8.5 4C6.294 4 4.5 5.794 4.5 8ZM6.5 8C6.5 6.897 7.397 6 8.5 6C9.603 6 10.5 6.897 10.5 8C10.5 9.103 9.603 10 8.5 10C7.397 10 6.5 9.103 6.5 8Z" fill="#9F9FA9"/>
<path fill-rule="evenodd" clip-rule="evenodd" d="M4.5 16H12.5C14.556 16 16.5 14.056 16.5 12V4C16.5 1.944 14.556 0 12.5 0H4.5C2.444 0 0.5 1.944 0.5 4V12C0.5 14.056 2.444 16 4.5 16ZM2.5 4C2.5 3.065 3.565 2 4.5 2H12.5C13.435 2 14.5 3.065 14.5 4V12C14.5 12.935 13.435 14 12.5 14H4.5C3.547 14 2.5 12.953 2.5 12V4Z" fill="#9F9FA9"/>
</svg>
