<svg width="16" height="16" viewBox="0 0 16 16" fill="none" xmlns="http://www.w3.org/2000/svg">
<path d="M1.6 0C0.7136 0 0 0.7136 0 1.6V14.4C0 15.2864 0.7136 16 1.6 16H14.4C15.2864 16 16 15.2864 16 14.4V1.6C16 0.7136 15.2864 0 14.4 0H1.6ZM2.53 1.637H13.519C14.0202 1.637 14.424 2.04083 14.424 2.542V13.535C14.424 14.0362 14.0202 14.439 13.519 14.439H2.53C2.02883 14.439 1.626 14.0362 1.626 13.535V2.542C1.626 2.04083 2.02883 1.637 2.53 1.637ZM4.477 3.385C3.86317 3.385 3.366 3.88217 3.366 4.496C3.366 5.10983 3.86317 5.608 4.477 5.608C5.09083 5.608 5.588 5.10983 5.588 4.496C5.588 3.88217 5.09083 3.385 4.477 3.385ZM10.297 6.279C10.1715 6.27855 10.0493 6.28377 9.89 6.292C9.5406 6.31005 8.72478 6.68776 8.426 7.291C8.426 7.0291 8.429 6.78895 8.429 6.43C8.07111 6.43 7.60315 6.432 6.625 6.432C6.625 7.52809 6.613 11.41 6.613 12.541H8.507C8.507 11.87 8.516 10.1844 8.516 9.126C8.516 8.77062 8.73089 7.95 9.614 7.95C10.4159 7.95 10.641 8.62448 10.641 9.126C10.641 10.2282 10.633 11.7866 10.633 12.541H12.538C12.538 11.8036 12.5446 9.80077 12.522 8.537C12.4945 7.00256 11.5609 6.34767 10.723 6.296C10.5506 6.28537 10.4225 6.27945 10.297 6.279ZM3.526 6.456V12.538H5.425V6.456H3.526Z" fill="#9F9FA9"/>
</svg>
