<svg width="157" height="61" viewBox="0 0 157 61" fill="none" xmlns="http://www.w3.org/2000/svg">
<circle cx="51.2657" cy="29.8718" r="15.7304" transform="rotate(-15 51.2657 29.8718)" fill="#203696"/>
<circle cx="53.1495" cy="31.6934" r="15.7304" transform="rotate(-15 53.1495 31.6934)" fill="#1B1B87"/>
<circle cx="55.669" cy="32.4141" r="15.7304" transform="rotate(-15 55.669 32.4141)" fill="#2727AC"/>
<circle cx="55.669" cy="32.4141" r="15.7304" transform="rotate(-15 55.669 32.4141)" fill="#FF6800"/>
<circle cx="58.9405" cy="32.468" r="15.7304" transform="rotate(-15 58.9405 32.468)" fill="#1B1B87"/>
<circle cx="62.212" cy="32.522" r="15.7304" transform="rotate(-15 62.212 32.522)" fill="#A8CDFF"/>
<circle cx="66.1192" cy="31.4751" r="15.7304" transform="rotate(-15 66.1192 31.4751)" fill="#1B1B87"/>
<path d="M106.56 44.3094C106.289 43.4221 105.981 42.5101 105.637 41.5735C105.316 40.6369 104.996 39.7003 104.676 38.7637H94.7011C94.3809 39.7003 94.0484 40.6369 93.7036 41.5735C93.3834 42.5101 93.0879 43.4221 92.817 44.3094H86.832C87.7926 41.5489 88.7039 38.9978 89.5659 36.6563C90.4279 34.3147 91.2653 32.1087 92.0781 30.0383C92.9155 27.9679 93.7282 26.0084 94.5164 24.1598C95.3291 22.2865 96.1665 20.4626 97.0286 18.688H102.533C103.371 20.4626 104.196 22.2865 105.008 24.1598C105.821 26.0084 106.634 27.9679 107.447 30.0383C108.284 32.1087 109.134 34.3147 109.996 36.6563C110.858 38.9978 111.769 41.5489 112.73 44.3094H106.56ZM99.6516 24.4925C99.5284 24.8623 99.3437 25.3675 99.0974 26.0084C98.8511 26.6492 98.5679 27.3887 98.2477 28.2267C97.9275 29.0647 97.5704 29.989 97.1763 30.9996C96.8069 32.0101 96.4251 33.07 96.0311 34.1792H103.309C102.915 33.07 102.533 32.0101 102.164 30.9996C101.794 29.989 101.437 29.0647 101.092 28.2267C100.772 27.3887 100.489 26.6492 100.243 26.0084C99.9964 25.3675 99.7994 24.8623 99.6516 24.4925Z" fill="#282740"/>
<path d="M115.201 20.0189L120.706 19.1316V24.8623H127.319V29.4468H120.706V36.2865C120.706 37.445 120.903 38.3693 121.297 39.0594C121.715 39.7496 122.54 40.0946 123.772 40.0946C124.363 40.0946 124.966 40.0454 125.582 39.9468C126.223 39.8235 126.801 39.6633 127.319 39.4661L128.094 43.7549C127.429 44.026 126.691 44.2601 125.878 44.4573C125.065 44.6545 124.068 44.7531 122.885 44.7531C121.383 44.7531 120.139 44.5559 119.154 44.1615C118.169 43.7425 117.381 43.1756 116.79 42.4608C116.198 41.7214 115.78 40.8341 115.533 39.7989C115.312 38.7637 115.201 37.6175 115.201 36.3605V20.0189Z" fill="#282740"/>
<path d="M138.217 40.4644C138.759 40.4644 139.276 40.452 139.768 40.4274C140.261 40.4027 140.655 40.3658 140.951 40.3165V36.1387C140.729 36.0894 140.396 36.0401 139.953 35.9908C139.51 35.9415 139.103 35.9168 138.734 35.9168C138.217 35.9168 137.724 35.9538 137.256 36.0277C136.813 36.077 136.419 36.188 136.074 36.3605C135.729 36.533 135.458 36.7672 135.261 37.063C135.064 37.3587 134.966 37.7284 134.966 38.1721C134.966 39.0348 135.249 39.6387 135.815 39.9837C136.407 40.3042 137.207 40.4644 138.217 40.4644ZM137.773 24.3446C139.399 24.3446 140.754 24.5295 141.837 24.8992C142.921 25.2689 143.783 25.7989 144.423 26.489C145.088 27.1792 145.556 28.0172 145.827 29.0031C146.098 29.989 146.234 31.0858 146.234 32.2936V43.7549C145.445 43.9274 144.349 44.1246 142.946 44.3464C141.542 44.5929 139.842 44.7161 137.847 44.7161C136.591 44.7161 135.446 44.6052 134.412 44.3834C133.402 44.1615 132.527 43.8042 131.789 43.3112C131.05 42.7936 130.483 42.1281 130.089 41.3147C129.695 40.5013 129.498 39.5031 129.498 38.32C129.498 37.1862 129.72 36.2249 130.163 35.4362C130.631 34.6475 131.247 34.0189 132.01 33.5506C132.774 33.0823 133.648 32.7496 134.633 32.5524C135.618 32.3306 136.64 32.2196 137.7 32.2196C138.414 32.2196 139.042 32.2566 139.584 32.3306C140.15 32.3799 140.606 32.4538 140.951 32.5524V32.0348C140.951 31.0982 140.667 30.3464 140.101 29.7795C139.534 29.2126 138.549 28.9292 137.145 28.9292C136.209 28.9292 135.286 29.0031 134.375 29.151C133.463 29.2742 132.675 29.4591 132.01 29.7056L131.308 25.2689C131.628 25.1704 132.022 25.0718 132.49 24.9732C132.983 24.8499 133.513 24.7513 134.079 24.6774C134.646 24.5788 135.237 24.5049 135.852 24.4556C136.493 24.3816 137.133 24.3446 137.773 24.3446Z" fill="#282740"/>
<path d="M156.427 44.3094H150.923V24.8623H156.427V44.3094ZM156.944 19.2425C156.944 20.2531 156.612 21.0542 155.947 21.6457C155.307 22.2126 154.543 22.4961 153.656 22.4961C152.77 22.4961 151.994 22.2126 151.329 21.6457C150.689 21.0542 150.368 20.2531 150.368 19.2425C150.368 18.232 150.689 17.4432 151.329 16.8763C151.994 16.2848 152.77 15.989 153.656 15.989C154.543 15.989 155.307 16.2848 155.947 16.8763C156.612 17.4432 156.944 18.232 156.944 19.2425Z" fill="#282740"/>
</svg>
