<svg width="366" height="745" viewBox="0 0 366 745" fill="none" xmlns="http://www.w3.org/2000/svg">
<path d="M9.20146 33.0651L10.0112 33.4771L9.20146 33.0651ZM32.0203 10.2172L32.4332 11.0265L32.0203 10.2172ZM333.98 10.2172L334.393 9.40794L333.98 10.2172ZM356.799 33.0651L355.989 33.4771L356.799 33.0651ZM356.799 713.443L355.989 713.031L356.799 713.443ZM333.98 736.291L333.567 735.482L333.98 736.291ZM32.0203 736.291L32.4332 735.482H32.4332L32.0203 736.291ZM9.20146 713.443L8.39174 713.855L9.20146 713.443ZM1.50222 67.3573V66.4487H0.593683V67.3573H1.50222ZM10.0374 67.3573H10.9459V66.4487H10.0374V67.3573ZM10.0374 74.3952V75.3037H10.9459V74.3952H10.0374ZM1.50222 74.3952H0.593683V75.3037H1.50222V74.3952ZM1.50222 675.129V674.221H0.593683V675.129H1.50222ZM10.0374 675.129H10.9459V674.221H10.0374V675.129ZM10.0374 682.167V683.076H10.9459V682.167H10.0374ZM1.50222 682.167H0.593683V683.076H1.50222V682.167ZM355.963 67.3573V66.4487H355.054V67.3573H355.963ZM364.498 67.3573H365.407V66.4487H364.498V67.3573ZM364.498 74.3952V75.3037H365.407V74.3952H364.498ZM355.963 74.3952H355.054V75.3037H355.963V74.3952ZM355.963 675.129V674.221H355.054V675.129H355.963ZM364.498 675.129H365.407V674.221H364.498V675.129ZM364.498 682.167V683.076H365.407V682.167H364.498ZM355.963 682.167H355.054V683.076H355.963V682.167ZM286.175 1H287.084V0.0914639L286.175 0.0914638V1ZM286.175 9.54601V10.4545H287.084V9.54601H286.175ZM279.146 9.54601L278.238 9.54601V10.4545H279.146V9.54601ZM279.146 1V0.0914635L278.238 0.0914634V0.999998L279.146 1ZM74.8043 735.454H75.7128V734.545H74.8043V735.454ZM74.8043 744V744.909H75.7128V744H74.8043ZM67.7753 744H66.8668V744.909H67.7753V744ZM67.7753 735.454V734.545H66.8668V735.454H67.7753ZM34.1181 732.653L33.7052 733.462L34.1181 732.653ZM12.8352 711.343L12.0254 711.755L12.8352 711.343ZM353.165 711.343L353.975 711.755L353.165 711.343ZM331.882 732.653L332.295 733.462L331.882 732.653ZM331.882 13.8554L332.295 13.0461L331.882 13.8554ZM353.165 35.1654L353.975 34.7533L353.165 35.1654ZM34.1181 13.8554L33.7052 13.0461L34.1181 13.8554ZM12.8352 35.1654L12.0254 34.7533L12.8352 35.1654ZM8.39174 32.653C5.47019 38.3942 4.03217 44.9828 3.31621 53.757C2.6011 62.5206 2.60181 73.544 2.60181 88.1692H4.41888C4.41888 73.5141 4.41959 62.5773 5.12726 53.9048C5.83407 45.2428 7.24161 38.9196 10.0112 33.4771L8.39174 32.653ZM31.6074 9.40794C21.6115 14.5076 13.4847 22.6448 8.39174 32.653L10.0112 33.4771C14.9303 23.8106 22.7793 15.9517 32.4332 11.0265L31.6074 9.40794ZM87.0546 3.61036C72.448 3.61036 61.4383 3.60966 52.6857 4.32568C43.9225 5.04258 37.3417 6.48249 31.6074 9.40794L32.4332 11.0265C37.8684 8.25365 44.1832 6.84439 52.8339 6.1367C61.4952 5.42815 72.418 5.42744 87.0546 5.42744V3.61036ZM278.945 3.61036H87.0546V5.42744H278.945V3.61036ZM334.393 9.40794C328.658 6.48249 322.078 5.04258 313.314 4.32568C304.562 3.60966 293.552 3.61036 278.945 3.61036V5.42744C293.582 5.42744 304.505 5.42815 313.166 6.1367C321.817 6.84439 328.132 8.25365 333.567 11.0265L334.393 9.40794ZM357.608 32.653C352.515 22.6448 344.389 14.5076 334.393 9.40794L333.567 11.0265C343.221 15.9517 351.07 23.8106 355.989 33.4771L357.608 32.653ZM363.398 88.1692C363.398 73.544 363.399 62.5206 362.684 53.757C361.968 44.9828 360.53 38.3942 357.608 32.653L355.989 33.4771C358.758 38.9196 360.166 45.2428 360.873 53.9048C361.58 62.5773 361.581 73.5141 361.581 88.1692H363.398ZM363.398 194.039V88.1692H361.581V194.039H363.398ZM363.996 193.131H362.49V194.948H363.996V193.131ZM365.909 195.045C365.909 193.989 365.053 193.131 363.996 193.131V194.948C364.048 194.948 364.091 194.99 364.091 195.045H365.909ZM365.909 280.505V195.045H364.091V280.505H365.909ZM363.996 282.419C365.053 282.419 365.909 281.561 365.909 280.505H364.091C364.091 280.559 364.048 280.602 363.996 280.602V282.419ZM362.49 282.419H363.996V280.602H362.49V282.419ZM363.398 658.339V281.51H361.581V658.339H363.398ZM357.608 713.855C360.53 708.114 361.968 701.525 362.684 692.751C363.399 683.987 363.398 672.964 363.398 658.339H361.581C361.581 672.994 361.58 683.931 360.873 692.603C360.166 701.265 358.758 707.588 355.989 713.031L357.608 713.855ZM334.393 737.1C344.389 732 352.515 723.863 357.608 713.855L355.989 713.031C351.07 722.697 343.221 730.556 333.567 735.482L334.393 737.1ZM278.945 742.898C293.552 742.898 304.562 742.898 313.314 742.182C322.078 741.465 328.658 740.026 334.393 737.1L333.567 735.482C328.132 738.254 321.817 739.664 313.166 740.371C304.505 741.08 293.582 741.081 278.945 741.081V742.898ZM87.0546 742.898H278.945V741.081H87.0546V742.898ZM31.6074 737.1C37.3417 740.026 43.9225 741.465 52.6857 742.182C61.4384 742.898 72.448 742.898 87.0546 742.898V741.081C72.418 741.081 61.4952 741.08 52.8339 740.371C44.1832 739.664 37.8684 738.254 32.4332 735.482L31.6074 737.1ZM8.39174 713.855C13.4847 723.863 21.6115 732 31.6074 737.1L32.4332 735.482C22.7793 730.556 14.9303 722.697 10.0112 713.031L8.39174 713.855ZM2.60181 658.339C2.60181 672.964 2.6011 683.987 3.31621 692.751C4.03217 701.525 5.47019 708.114 8.39174 713.855L10.0112 713.031C7.24161 707.588 5.83407 701.265 5.12726 692.603C4.41959 683.931 4.41888 672.994 4.41888 658.339H2.60181ZM2.60181 299.105V658.339H4.41888V299.105H2.60181ZM3.51034 298.196H2.00414V300.013H3.51034V298.196ZM2.00414 298.196C1.95244 298.196 1.90854 298.154 1.90854 298.099H0.0914635C0.0914635 299.155 0.946693 300.013 2.00414 300.013V298.196ZM1.90854 298.099V243.807H0.0914635V298.099H1.90854ZM1.90854 243.807C1.90854 243.753 1.95241 243.71 2.00414 243.71V241.893C0.946728 241.893 0.0914635 242.751 0.0914635 243.807H1.90854ZM2.00414 243.71H3.51034V241.893H2.00414V243.71ZM2.60181 230.234V242.802H4.41888V230.234H2.60181ZM2.00414 231.143H3.51034V229.326H2.00414V231.143ZM0.0914635 229.229C0.0914635 230.285 0.946702 231.143 2.00414 231.143V229.326C1.95243 229.326 1.90854 229.283 1.90854 229.229H0.0914635ZM0.0914635 174.936V229.229H1.90854V174.936H0.0914635ZM2.00414 173.022C0.946715 173.022 0.0914635 173.88 0.0914635 174.936H1.90854C1.90854 174.882 1.95242 174.839 2.00414 174.839V173.022ZM3.51034 173.022H2.00414V174.839H3.51034V173.022ZM2.60181 150.304V173.931H4.41888V150.304H2.60181ZM2.00414 151.212H3.51034V149.395H2.00414V151.212ZM0.0914635 149.298C0.0914635 150.354 0.946715 151.212 2.00414 151.212V149.395C1.95242 149.395 1.90854 149.353 1.90854 149.298H0.0914635ZM0.0914635 122.152V149.298H1.90854V122.152H0.0914635ZM2.00414 120.238C0.946711 120.238 0.0914635 121.096 0.0914635 122.152H1.90854C1.90854 122.098 1.95243 122.055 2.00414 122.055V120.238ZM3.51034 120.238H2.00414V122.055H3.51034V120.238ZM2.60181 88.1692V121.147H4.41888V88.1692H2.60181ZM361.581 88.1692V658.339H363.398V88.1692H361.581ZM4.41888 658.339V88.1692H2.60181V658.339H4.41888ZM1.50222 68.2658H10.0374V66.4487H1.50222V68.2658ZM9.12886 67.3573V74.3952H10.9459V67.3573H9.12886ZM10.0374 73.4866H1.50222V75.3037H10.0374V73.4866ZM2.41076 74.3952V67.3573H0.593683V74.3952H2.41076ZM1.50222 676.038H10.0374V674.221H1.50222V676.038ZM9.12886 675.129V682.167H10.9459V675.129H9.12886ZM10.0374 681.259H1.50222V683.076H10.0374V681.259ZM2.41076 682.167V675.129H0.593683V682.167H2.41076ZM355.963 68.2658H364.498V66.4487H355.963V68.2658ZM363.589 67.3573V74.3952H365.407V67.3573H363.589ZM364.498 73.4866H355.963V75.3037H364.498V73.4866ZM356.871 74.3952V67.3573H355.054V74.3952H356.871ZM355.963 676.038H364.498V674.221H355.963V676.038ZM363.589 675.129V682.167H365.407V675.129H363.589ZM364.498 681.259H355.963V683.076H364.498V681.259ZM356.871 682.167V675.129H355.054V682.167H356.871ZM285.267 1V9.54601H287.084V1H285.267ZM286.175 8.63747H279.146V10.4545H286.175V8.63747ZM280.055 9.54601L280.055 1L278.238 0.999998L278.238 9.54601L280.055 9.54601ZM279.146 1.90854L286.175 1.90854V0.0914638L279.146 0.0914635V1.90854ZM73.8957 735.454V744H75.7128V735.454H73.8957ZM74.8043 743.091H67.7753V744.909H74.8043V743.091ZM68.6838 744V735.454H66.8668V744H68.6838ZM67.7753 736.362H74.8043V734.545H67.7753V736.362ZM85.4482 9.44914H280.552V7.63206H85.4482V9.44914ZM357.565 86.5606V659.948H359.382V86.5606H357.565ZM280.552 737.059H85.4482V738.876H280.552V737.059ZM8.43563 659.948V86.5606H6.61856V659.948H8.43563ZM85.4482 737.059C71.7957 737.059 61.6111 737.058 53.5358 736.398C45.4711 735.738 39.5903 734.425 34.531 731.844L33.7052 733.462C39.0636 736.196 45.2104 737.54 53.3876 738.209C61.5542 738.877 71.8257 738.876 85.4482 738.876V737.059ZM6.61856 659.948C6.61856 673.587 6.61785 683.872 7.28507 692.049C7.95316 700.236 9.29541 706.39 12.0254 711.755L13.6449 710.931C11.0668 705.865 9.75506 699.976 9.09613 691.901C8.43634 683.815 8.43563 673.617 8.43563 659.948H6.61856ZM34.531 731.844C25.5384 727.256 18.227 719.935 13.6449 710.931L12.0254 711.755C16.7815 721.101 24.3706 728.7 33.7052 733.462L34.531 731.844ZM357.565 659.948C357.565 673.617 357.564 683.815 356.904 691.901C356.245 699.976 354.934 705.865 352.355 710.931L353.975 711.755C356.705 706.39 358.047 700.236 358.715 692.049C359.383 683.872 359.382 673.587 359.382 659.948H357.565ZM280.552 738.876C294.175 738.876 304.446 738.877 312.613 738.209C320.79 737.54 326.937 736.196 332.295 733.462L331.469 731.844C326.41 734.425 320.529 735.738 312.465 736.398C304.389 737.058 294.205 737.059 280.552 737.059V738.876ZM352.355 710.931C347.773 719.935 340.462 727.256 331.469 731.844L332.295 733.462C341.63 728.7 349.219 721.101 353.975 711.755L352.355 710.931ZM280.552 9.44914C294.205 9.44914 304.389 9.44984 312.465 10.1105C320.529 10.7702 326.41 12.0836 331.469 14.6647L332.295 13.0461C326.937 10.3124 320.79 8.96839 312.613 8.29944C304.446 7.63135 294.175 7.63206 280.552 7.63206V9.44914ZM359.382 86.5606C359.382 72.9208 359.383 62.6364 358.715 54.4596C358.047 46.2723 356.705 40.1181 353.975 34.7533L352.355 35.5774C354.934 40.6436 356.245 46.5322 356.904 54.6074C357.564 62.6931 357.565 72.8909 357.565 86.5606H359.382ZM331.469 14.6647C340.462 19.2525 347.773 26.5731 352.355 35.5774L353.975 34.7533C349.219 25.4072 341.63 17.8084 332.295 13.0461L331.469 14.6647ZM85.4482 7.63206C71.8257 7.63206 61.5542 7.63135 53.3876 8.29944C45.2104 8.96839 39.0636 10.3124 33.7052 13.0461L34.531 14.6647C39.5903 12.0836 45.4711 10.7702 53.5358 10.1105C61.6111 9.44984 71.7957 9.44914 85.4482 9.44914V7.63206ZM8.43563 86.5606C8.43563 72.8908 8.43634 62.6931 9.09613 54.6074C9.75506 46.5322 11.0668 40.6436 13.6449 35.5774L12.0254 34.7533C9.29541 40.1181 7.95316 46.2723 7.28507 54.4596C6.61785 62.6364 6.61856 72.9208 6.61856 86.5606H8.43563ZM33.7052 13.0461C24.3706 17.8084 16.7815 25.4072 12.0254 34.7533L13.6449 35.5774C18.227 26.5731 25.5384 19.2525 34.531 14.6647L33.7052 13.0461ZM2.60181 121.147V150.304H4.41888V121.147H2.60181ZM2.60181 173.931V230.234H4.41888V173.931H2.60181ZM363.398 281.51V194.039H361.581V281.51H363.398ZM2.60181 242.802V299.105H4.41888V242.802H2.60181ZM167.185 29.5572H199.317V27.7401H167.185V29.5572ZM199.317 34.778H167.185V36.5951H199.317V34.778ZM167.185 34.778C165.747 34.778 164.579 33.6104 164.579 32.1676H162.762C162.762 34.6118 164.741 36.5951 167.185 36.5951V34.778ZM201.923 32.1676C201.923 33.6104 200.755 34.778 199.317 34.778V36.5951C201.761 36.5951 203.74 34.6118 203.74 32.1676H201.923ZM199.317 29.5572C200.755 29.5572 201.923 30.7249 201.923 32.1676H203.74C203.74 29.7235 201.761 27.7401 199.317 27.7401V29.5572ZM167.185 27.7401C164.741 27.7401 162.762 29.7235 162.762 32.1676H164.579C164.579 30.7248 165.747 29.5572 167.185 29.5572V27.7401ZM217.894 38.2969C214.515 38.2969 211.774 35.5538 211.774 32.1676H209.957C209.957 36.5552 213.509 40.114 217.894 40.114V38.2969ZM224.014 32.1676C224.014 35.5538 221.273 38.2969 217.894 38.2969V40.114C222.279 40.114 225.832 36.5552 225.832 32.1676H224.014ZM217.894 26.0382C221.273 26.0382 224.014 28.7814 224.014 32.1676H225.832C225.832 27.78 222.279 24.2212 217.894 24.2212V26.0382ZM217.894 24.2212C213.509 24.2212 209.957 27.78 209.957 32.1676H211.774C211.774 28.7814 214.515 26.0382 217.894 26.0382V24.2212ZM217.894 36.5951C220.338 36.5951 222.317 34.6118 222.317 32.1676H220.5C220.5 33.6104 219.332 34.778 217.894 34.778V36.5951ZM213.471 32.1676C213.471 34.6118 215.45 36.5951 217.894 36.5951V34.778C216.456 34.778 215.288 33.6104 215.288 32.1676H213.471ZM217.894 27.7401C215.45 27.7401 213.471 29.7235 213.471 32.1676H215.288C215.288 30.7249 216.456 29.5572 217.894 29.5572V27.7401ZM217.894 29.5572C219.332 29.5572 220.5 30.7248 220.5 32.1676H222.317C222.317 29.7235 220.338 27.7401 217.894 27.7401V29.5572Z" fill="#E4E4E4" fill-opacity="0.25"/>
<path d="M10.4244 93.1318C10.4244 64.3625 10.4244 49.9778 15.8963 38.9894C20.7095 29.3237 28.3897 21.4652 37.8362 16.5403C48.5754 10.9414 62.6338 10.9414 90.7506 10.9414H275.25C303.367 10.9414 317.425 10.9414 328.164 16.5403C337.611 21.4652 345.291 29.3237 350.104 38.9894C355.576 49.9778 355.576 64.3625 355.576 93.1318V197.154H357.024C357.557 197.154 357.99 197.596 357.99 198.142V282.11C357.99 282.656 357.557 283.098 357.024 283.098H355.576V653.35C355.576 682.12 355.576 696.504 350.104 707.493C345.291 717.158 337.611 725.017 328.164 729.942C317.425 735.541 303.367 735.541 275.25 735.541H90.7506C62.6338 735.541 48.5754 735.541 37.8362 729.942C28.3897 725.017 20.7095 717.158 15.8963 707.493C10.4244 696.504 10.4244 682.12 10.4244 653.35V300.386H8.9762C8.44299 300.386 8.01074 299.944 8.01074 299.398V246.053C8.01074 245.508 8.44299 245.066 8.9762 245.066H10.4244V232.717H8.9762C8.44299 232.717 8.01074 232.275 8.01074 231.729V178.385C8.01074 177.839 8.44299 177.397 8.9762 177.397H10.4244V154.182H8.9762C8.44299 154.182 8.01074 153.74 8.01074 153.194V126.522C8.01074 125.976 8.44299 125.534 8.9762 125.534H10.4244V93.1318Z" fill="#242731"/>
<path d="M10.4244 93.1318C10.4244 64.3625 10.4244 49.9778 15.8963 38.9894C20.7095 29.3237 28.3897 21.4652 37.8362 16.5403C48.5754 10.9414 62.6338 10.9414 90.7506 10.9414H275.25C303.367 10.9414 317.425 10.9414 328.164 16.5403C337.611 21.4652 345.291 29.3237 350.104 38.9894C355.576 49.9778 355.576 64.3625 355.576 93.1318V653.35C355.576 682.12 355.576 696.504 350.104 707.493C345.291 717.158 337.611 725.017 328.164 729.942C317.425 735.541 303.367 735.541 275.25 735.541H90.7506C62.6338 735.541 48.5754 735.541 37.8362 729.942C28.3897 725.017 20.7095 717.158 15.8963 707.493C10.4244 696.504 10.4244 682.12 10.4244 653.35V93.1318Z" fill="#242731"/>
<path d="M10.4244 93.1318C10.4244 64.3625 10.4244 49.9778 15.8963 38.9894C20.7095 29.3237 28.3897 21.4652 37.8362 16.5403C48.5754 10.9414 62.6338 10.9414 90.7506 10.9414H275.25C303.367 10.9414 317.425 10.9414 328.164 16.5403C337.611 21.4652 345.291 29.3237 350.104 38.9894C355.576 49.9778 355.576 64.3625 355.576 93.1318V653.35C355.576 682.12 355.576 696.504 350.104 707.493C345.291 717.158 337.611 725.017 328.164 729.942C317.425 735.541 303.367 735.541 275.25 735.541H90.7506C62.6338 735.541 48.5754 735.541 37.8362 729.942C28.3897 725.017 20.7095 717.158 15.8963 707.493C10.4244 696.504 10.4244 682.12 10.4244 653.35V93.1318Z" fill="#242731"/>
<path d="M10.462 72.6831H18.6684V79.5981H10.462V72.6831Z" fill="#242731"/>
<path d="M11.0089 669.848H19.2153V676.763H11.0089V669.848Z" fill="#242731"/>
<path d="M346.785 72.6831H354.991V79.5981H346.785V72.6831Z" fill="#242731"/>
<path d="M346.635 669.848H354.842V676.763H346.635V669.848Z" fill="#242731"/>
<path d="M282.201 11.0879V19.4847H275.443L275.443 11.0879L282.201 11.0879Z" fill="#242731"/>
<path d="M78.9721 729.12V735.455H72.2139V729.12H78.9721Z" fill="#242731"/>
<path d="M11.7708 91.5512C11.7708 64.7183 11.7708 51.3019 16.8744 41.053C21.3636 32.0379 28.5269 24.7084 37.3375 20.115C47.3539 14.8929 60.4661 14.8929 86.6904 14.8929H274.279C300.503 14.8929 313.616 14.8929 323.632 20.115C332.443 24.7084 339.606 32.0379 344.095 41.053C349.199 51.3019 349.199 64.7183 349.199 91.5513V654.931C349.199 681.764 349.199 695.18 344.095 705.429C339.606 714.444 332.443 721.774 323.632 726.367C313.616 731.589 300.503 731.589 274.279 731.589H86.6904C60.4661 731.589 47.3539 731.589 37.3375 726.367C28.5269 721.774 21.3636 714.444 16.8744 705.429C11.7708 695.18 11.7708 681.764 11.7708 654.931V91.5512Z" fill="#242731"/>
<path d="M8.01074 126.522C8.01074 125.976 8.44299 125.534 8.9762 125.534H10.4244V154.182H8.9762C8.44299 154.182 8.01074 153.74 8.01074 153.194V126.522Z" fill="#242731"/>
<path d="M8.01074 178.385C8.01074 177.839 8.44299 177.397 8.9762 177.397H10.4244V232.717H8.9762C8.44299 232.717 8.01074 232.275 8.01074 231.729V178.385Z" fill="#242731"/>
<path d="M355.576 197.154H357.024C357.557 197.154 357.99 197.596 357.99 198.142V282.11C357.99 282.656 357.557 283.098 357.024 283.098H355.576V197.154Z" fill="#242731"/>
<path d="M8.01074 246.053C8.01074 245.508 8.44299 245.066 8.9762 245.066H10.4244V300.386H8.9762C8.44299 300.386 8.01074 299.944 8.01074 299.398V246.053Z" fill="#242731"/>
<path d="M10.4244 93.1318C10.4244 64.3625 10.4244 49.9778 15.8963 38.9894C20.7095 29.3237 28.3897 21.4652 37.8362 16.5403C48.5754 10.9414 62.6338 10.9414 90.7506 10.9414H275.25C303.367 10.9414 317.425 10.9414 328.164 16.5403C337.611 21.4652 345.291 29.3237 350.104 38.9894C355.576 49.9778 355.576 64.3625 355.576 93.1318V653.35C355.576 682.12 355.576 696.504 350.104 707.493C345.291 717.158 337.611 725.017 328.164 729.942C317.425 735.541 303.367 735.541 275.25 735.541H90.7506C62.6338 735.541 48.5754 735.541 37.8362 729.942C28.3897 725.017 20.7095 717.158 15.8963 707.493C10.4244 696.504 10.4244 682.12 10.4244 653.35V93.1318Z" fill="#242731"/>
<path d="M10.4244 93.1318C10.4244 64.3625 10.4244 49.9778 15.8963 38.9894C20.7095 29.3237 28.3897 21.4652 37.8362 16.5403C48.5754 10.9414 62.6338 10.9414 90.7506 10.9414H275.25C303.367 10.9414 317.425 10.9414 328.164 16.5403C337.611 21.4652 345.291 29.3237 350.104 38.9894C355.576 49.9778 355.576 64.3625 355.576 93.1318V653.35C355.576 682.12 355.576 696.504 350.104 707.493C345.291 717.158 337.611 725.017 328.164 729.942C317.425 735.541 303.367 735.541 275.25 735.541H90.7506C62.6338 735.541 48.5754 735.541 37.8362 729.942C28.3897 725.017 20.7095 717.158 15.8963 707.493C10.4244 696.504 10.4244 682.12 10.4244 653.35V93.1318Z" fill="#242731"/>
<path d="M10.462 72.6831H18.6684V79.5981H10.462V72.6831Z" fill="#242731"/>
<path d="M11.0089 669.848H19.2153V676.763H11.0089V669.848Z" fill="#242731"/>
<path d="M346.785 72.6831H354.991V79.5981H346.785V72.6831Z" fill="#242731"/>
<path d="M346.635 669.848H354.842V676.763H346.635V669.848Z" fill="#242731"/>
<path d="M282.201 11.0879V19.4847H275.443L275.443 11.0879L282.201 11.0879Z" fill="#242731"/>
<path d="M78.9721 729.12V735.455H72.2139V729.12H78.9721Z" fill="#242731"/>
<path d="M11.7708 91.5512C11.7708 64.7183 11.7708 51.3019 16.8744 41.053C21.3636 32.0379 28.5269 24.7084 37.3375 20.115C47.3539 14.8929 60.4661 14.8929 86.6904 14.8929H274.279C300.503 14.8929 313.616 14.8929 323.632 20.115C332.443 24.7084 339.606 32.0379 344.095 41.053C349.199 51.3019 349.199 64.7183 349.199 91.5513V654.931C349.199 681.764 349.199 695.18 344.095 705.429C339.606 714.444 332.443 721.774 323.632 726.367C313.616 731.589 300.503 731.589 274.279 731.589H86.6904C60.4661 731.589 47.3539 731.589 37.3375 726.367C28.5269 721.774 21.3636 714.444 16.8744 705.429C11.7708 695.18 11.7708 681.764 11.7708 654.931V91.5512Z" fill="#242731"/>
<path d="M8.01074 126.522C8.01074 125.976 8.44299 125.534 8.9762 125.534H10.4244V154.182H8.9762C8.44299 154.182 8.01074 153.74 8.01074 153.194V126.522Z" fill="#242731"/>
<path d="M8.01074 178.385C8.01074 177.839 8.44299 177.397 8.9762 177.397H10.4244V232.717H8.9762C8.44299 232.717 8.01074 232.275 8.01074 231.729V178.385Z" fill="#242731"/>
<path d="M355.576 197.154H357.024C357.557 197.154 357.99 197.596 357.99 198.142V282.11C357.99 282.656 357.557 283.098 357.024 283.098H355.576V197.154Z" fill="#242731"/>
<path d="M8.01074 246.053C8.01074 245.508 8.44299 245.066 8.9762 245.066H10.4244V300.386H8.9762C8.44299 300.386 8.01074 299.944 8.01074 299.398V246.053Z" fill="#242731"/>
<path d="M164.415 38.1076C164.415 36.198 165.928 34.6501 167.794 34.6501H198.689C200.555 34.6501 202.068 36.198 202.068 38.1076C202.068 40.0171 200.555 41.5651 198.689 41.5651H167.794C165.928 41.5651 164.415 40.0171 164.415 38.1076Z" fill="#242731"/>
<path d="M164.415 38.1076C164.415 36.198 165.928 34.6501 167.794 34.6501H198.689C200.555 34.6501 202.068 36.198 202.068 38.1076C202.068 40.0171 200.555 41.5651 198.689 41.5651H167.794C165.928 41.5651 164.415 40.0171 164.415 38.1076Z" fill="#242731"/>
<path d="M164.415 38.1076C164.415 36.198 165.928 34.6501 167.794 34.6501H198.689C200.555 34.6501 202.068 36.198 202.068 38.1076C202.068 40.0171 200.555 41.5651 198.689 41.5651H167.794C165.928 41.5651 164.415 40.0171 164.415 38.1076Z" fill="#242731"/>
<path d="M209.792 38.1076C209.792 34.2885 212.818 31.1925 216.55 31.1925C220.283 31.1925 223.308 34.2885 223.308 38.1076C223.308 41.9266 220.283 45.0226 216.55 45.0226C212.818 45.0226 209.792 41.9266 209.792 38.1076Z" fill="#242731"/>
<path d="M219.929 38.1076C219.929 36.198 218.416 34.6501 216.55 34.6501C214.684 34.6501 213.171 36.198 213.171 38.1076C213.171 40.0171 214.684 41.5651 216.55 41.5651C218.416 41.5651 219.929 40.0171 219.929 38.1076Z" fill="#242731"/>
<path fill-rule="evenodd" clip-rule="evenodd" d="M61.436 53.7398C59.6098 52.6874 57.3611 52.6876 55.5351 53.7406L39.7292 62.8545C37.8997 63.9094 36.7725 65.8606 36.7725 67.9724L36.7725 86.6514C36.7725 88.9678 38.1262 91.0704 40.2348 92.0293L56.0459 99.2189C57.5997 99.9254 59.3831 99.9254 60.9368 99.2189L76.7479 92.0293C78.8566 91.0704 80.2103 88.9678 80.2103 86.6514L80.2103 67.9734C80.2103 65.8611 79.0825 63.9095 77.2523 62.8547L61.436 53.7398ZM55.7299 58.3092C57.4372 57.3573 59.5148 57.3536 61.2255 58.2994L73.3454 65.0001C75.1483 65.9969 76.2673 67.8943 76.2673 69.9543L76.2673 77.2457C76.2673 77.9901 75.6639 78.5935 74.9195 78.5935C74.1751 78.5935 73.5717 77.9901 73.5717 77.2457L73.5717 69.9543C73.5717 68.8752 72.9855 67.8814 72.0412 67.3593L59.9212 60.6585C59.0252 60.1631 57.9369 60.1651 57.0426 60.6637L45.0427 67.354C44.1036 67.8776 43.5215 68.8686 43.5215 69.9439L43.5215 77.3322C43.5215 78.0766 42.918 78.68 42.1736 78.68C41.4293 78.68 40.8258 78.0766 40.8258 77.3322L40.8258 69.9439C40.8258 67.8911 41.9371 65.9992 43.7301 64.9996L55.7299 58.3092ZM60.1734 69.8039L65.5445 73.0352C66.2281 73.4465 67.1061 72.9987 67.1746 72.2039L67.2114 71.7766C67.2474 71.3593 67.0385 70.9589 66.6755 70.7497L60.1234 66.9739C59.1114 66.3907 57.8637 66.3984 56.8589 66.9939L50.5272 70.7469C50.1708 70.9582 49.967 71.355 50.0028 71.7678L50.0369 72.1608C50.1063 72.9604 50.9938 73.4066 51.677 72.9854L56.8083 69.8221C57.8383 69.1872 59.1366 69.1802 60.1734 69.8039ZM64.4999 89.9531L64.4999 78.623C64.4999 77.8716 65.109 77.2625 65.8604 77.2625C66.6118 77.2625 67.2209 77.8716 67.2209 78.623L67.2209 88.7828L72.524 86.5021C73.159 86.229 73.5705 85.6041 73.5705 84.9128C73.5705 84.1684 74.174 83.565 74.9184 83.565C75.6628 83.565 76.2662 84.1684 76.2662 84.9128C76.2662 86.6812 75.2135 88.2798 73.589 88.9785L60.7166 94.5145C59.2771 95.1336 57.6454 95.1283 56.21 94.5L43.4321 88.9065C41.8493 88.2136 40.8266 86.6495 40.8266 84.9216C40.8266 84.1772 41.43 83.5738 42.1744 83.5738C42.9188 83.5738 43.5223 84.1772 43.5223 84.9216C43.5223 85.5787 43.9112 86.1735 44.5131 86.4371L49.9936 88.8361L49.9936 81.872C49.9936 81.1207 50.6027 80.5133 51.3541 80.5133C52.1055 80.5133 52.7146 81.1224 52.7146 81.8738L52.7145 90.0272L57.1308 91.9604L57.1308 81.4644C57.1308 80.836 57.6402 80.3265 58.2686 80.3265L58.7013 80.3265C59.3291 80.3265 59.8383 80.8318 59.8391 81.4597C59.8422 84.0206 59.8496 90.1702 59.8514 91.9523L64.4999 89.9531Z" fill="#B24444"/>
<path d="M105.307 89.3084C103.376 89.3084 101.504 89.0341 99.6914 88.4857C97.9029 87.9372 96.484 87.2099 95.4348 86.3037L97.0444 82.691C98.0698 83.5018 99.3217 84.1695 100.8 84.6941C102.303 85.1949 103.805 85.4453 105.307 85.4453C107.167 85.4453 108.55 85.1472 109.456 84.551C110.386 83.9548 110.852 83.1679 110.852 82.1902C110.852 81.4748 110.589 80.8906 110.065 80.4375C109.564 79.9606 108.92 79.5909 108.133 79.3286C107.346 79.0663 106.273 78.7682 104.914 78.4344C103.006 77.9813 101.456 77.5282 100.264 77.0751C99.0952 76.6221 98.0817 75.9186 97.2232 74.9647C96.3886 73.987 95.9713 72.6755 95.9713 71.0301C95.9713 69.647 96.3409 68.395 97.0802 67.2743C97.8433 66.1296 98.976 65.2235 100.478 64.5558C102.004 63.8881 103.864 63.5542 106.058 63.5542C107.585 63.5542 109.087 63.745 110.565 64.1265C112.044 64.5081 113.32 65.0565 114.393 65.7719L112.926 69.3847C111.829 68.7408 110.685 68.252 109.492 67.9181C108.3 67.5843 107.143 67.4173 106.023 67.4173C104.186 67.4173 102.815 67.7273 101.909 68.3473C101.027 68.9673 100.586 69.7901 100.586 70.8154C100.586 71.5308 100.836 72.1151 101.337 72.5682C101.861 73.0212 102.517 73.3789 103.304 73.6413C104.091 73.9036 105.164 74.2016 106.523 74.5355C108.383 74.9647 109.91 75.4178 111.102 75.8947C112.294 76.3478 113.308 77.0513 114.142 78.0052C115.001 78.959 115.43 80.2467 115.43 81.8683C115.43 83.2514 115.048 84.5033 114.285 85.6241C113.546 86.7449 112.413 87.6391 110.887 88.3068C109.361 88.9745 107.501 89.3084 105.307 89.3084ZM125.307 67.8466L117.009 67.8466L117.009 63.9119L138.256 63.9119L138.256 67.8466L129.958 67.8466L129.958 88.9507L125.307 88.9507L125.307 67.8466ZM157.264 83.156L144.745 83.156L142.277 88.9507L137.484 88.9507L148.751 63.9119L153.33 63.9119L164.633 88.9507L159.768 88.9507L157.264 83.156ZM155.726 79.5075L151.005 68.562L146.319 79.5075L155.726 79.5075ZM172.176 67.8466L163.877 67.8466L163.877 63.9119L185.124 63.9119L185.124 67.8466L176.826 67.8466L176.826 88.9507L172.176 88.9507L172.176 67.8466ZM196.668 89.3084C194.736 89.3084 192.865 89.0341 191.052 88.4857C189.264 87.9372 187.845 87.2099 186.796 86.3037L188.405 82.691C189.431 83.5018 190.683 84.1695 192.161 84.6941C193.663 85.1949 195.166 85.4453 196.668 85.4453C198.528 85.4453 199.911 85.1472 200.817 84.551C201.747 83.9548 202.212 83.1679 202.212 82.1902C202.212 81.4748 201.95 80.8906 201.425 80.4375C200.925 79.9606 200.281 79.5909 199.494 79.3286C198.707 79.0663 197.634 78.7682 196.275 78.4344C194.367 77.9813 192.817 77.5282 191.624 77.0751C190.456 76.6221 189.443 75.9186 188.584 74.9647C187.749 73.987 187.332 72.6755 187.332 71.0301C187.332 69.647 187.702 68.395 188.441 67.2742C189.204 66.1296 190.337 65.2235 191.839 64.5558C193.365 63.8881 195.225 63.5542 197.419 63.5542C198.945 63.5542 200.448 63.745 201.926 64.1265C203.405 64.5081 204.68 65.0565 205.754 65.7719L204.287 69.3847C203.19 68.7408 202.045 68.252 200.853 67.9181C199.661 67.5843 198.504 67.4173 197.383 67.4173C195.547 67.4173 194.176 67.7273 193.27 68.3473C192.388 68.9673 191.946 69.7901 191.946 70.8154C191.946 71.5308 192.197 72.1151 192.698 72.5682C193.222 73.0212 193.878 73.3789 194.665 73.6413C195.452 73.9036 196.525 74.2016 197.884 74.5355C199.744 74.9647 201.27 75.4178 202.463 75.8947C203.655 76.3478 204.669 77.0513 205.503 78.0052C206.362 78.959 206.791 80.2467 206.791 81.8683C206.791 83.2514 206.409 84.5033 205.646 85.6241C204.907 86.7449 203.774 87.6391 202.248 88.3068C200.722 88.9745 198.862 89.3084 196.668 89.3084ZM216.668 67.8466L208.37 67.8466L208.37 63.9119L229.617 63.9119L229.617 67.8466L221.318 67.8466L221.318 88.9507L216.668 88.9507L216.668 67.8466ZM248.625 83.156L236.106 83.156L233.638 88.9507L228.845 88.9507L240.112 63.9119L244.691 63.9119L255.994 88.9507L251.129 88.9507L248.625 83.156ZM247.087 79.5075L242.365 68.562L237.68 79.5075L247.087 79.5075ZM268.335 78.4702L264.365 82.5479L264.365 88.9507L259.715 88.9507L259.715 63.9119L264.365 63.9119L264.365 76.7532L276.741 63.9119L281.963 63.9119L271.447 75.1078L282.607 88.9507L277.17 88.9507L268.335 78.4702Z" fill="white"/>
<g opacity="0.6">
<path d="M139.204 210.763H120.567C119.539 210.763 118.703 209.927 118.703 208.899V199.581C118.703 199.067 119.121 198.649 119.635 198.649C120.15 198.649 120.567 199.067 120.567 199.581V208.899H139.204V199.581C139.204 199.067 139.62 198.649 140.136 198.649C140.651 198.649 141.067 199.067 141.067 199.581V208.899C141.067 209.927 140.231 210.763 139.204 210.763ZM129.885 205.172C129.647 205.172 129.408 205.081 129.227 204.899L125.499 201.172C125.135 200.807 125.135 200.218 125.499 199.854C125.864 199.49 126.452 199.49 126.817 199.854L129.885 202.922L132.954 199.854C133.318 199.49 133.907 199.49 134.271 199.854C134.636 200.218 134.636 200.807 134.271 201.172L130.544 204.899C130.362 205.081 130.124 205.172 129.885 205.172ZM129.885 205.172C129.371 205.172 128.954 204.755 128.954 204.24V189.331C128.954 188.816 129.371 188.399 129.885 188.399C130.4 188.399 130.817 188.816 130.817 189.331V204.24C130.817 204.755 130.4 205.172 129.885 205.172Z" fill="#E4E4E4" fill-opacity="0.25"/>
<path d="M157.374 192.372V201.559C157.374 203.49 156.04 204.88 153.871 204.88C151.71 204.88 150.369 203.49 150.369 201.559V192.372H148.222V201.732C148.222 204.72 150.459 206.84 153.871 206.84C157.283 206.84 159.528 204.72 159.528 201.732V192.372H157.374ZM162.483 210.606H164.561V204.943H164.686C165.061 205.624 165.825 206.812 167.771 206.812C170.356 206.812 172.233 204.741 172.233 201.288C172.233 197.827 170.328 195.791 167.75 195.791C165.77 195.791 165.054 197 164.686 197.66H164.512V195.93H162.483V210.606ZM164.519 201.267C164.519 199.036 165.492 197.556 167.306 197.556C169.189 197.556 170.134 199.147 170.134 201.267C170.134 203.407 169.161 205.04 167.306 205.04C165.52 205.04 164.519 203.511 164.519 201.267ZM176.638 192.372H174.56V206.604H176.638V192.372ZM183.929 206.819C186.938 206.819 188.905 204.616 188.905 201.315C188.905 197.994 186.938 195.791 183.929 195.791C180.921 195.791 178.954 197.994 178.954 201.315C178.954 204.616 180.921 206.819 183.929 206.819ZM183.936 205.075C181.97 205.075 181.053 203.358 181.053 201.308C181.053 199.265 181.97 197.528 183.936 197.528C185.889 197.528 186.806 199.265 186.806 201.308C186.806 203.358 185.889 205.075 183.936 205.075ZM194.33 206.84C196.095 206.84 197.089 205.943 197.485 205.144H197.569V206.604H199.598V199.516C199.598 196.409 197.152 195.791 195.456 195.791C193.524 195.791 191.745 196.569 191.05 198.515L193.003 198.96C193.309 198.202 194.087 197.472 195.484 197.472C196.825 197.472 197.513 198.174 197.513 199.383V199.432C197.513 200.19 196.735 200.176 194.817 200.398C192.795 200.634 190.724 201.162 190.724 203.588C190.724 205.686 192.301 206.84 194.33 206.84ZM194.782 205.172C193.608 205.172 192.76 204.644 192.76 203.615C192.76 202.504 193.747 202.107 194.949 201.948C195.623 201.857 197.221 201.677 197.52 201.378V202.754C197.52 204.018 196.512 205.172 194.782 205.172ZM206.361 206.812C208.307 206.812 209.071 205.624 209.446 204.943H209.62V206.604H211.649V192.372H209.571V197.66H209.446C209.071 197 208.362 195.791 206.375 195.791C203.797 195.791 201.9 197.827 201.9 201.288C201.9 204.741 203.769 206.812 206.361 206.812ZM206.82 205.04C204.964 205.04 203.998 203.407 203.998 201.267C203.998 199.147 204.943 197.556 206.82 197.556C208.633 197.556 209.606 199.036 209.606 201.267C209.606 203.511 208.612 205.04 206.82 205.04ZM224.873 195.93H222.573V194.971C222.573 194.026 222.962 193.512 223.977 193.512C224.408 193.512 224.713 193.609 224.908 193.671L225.394 191.99C225.102 191.879 224.498 191.705 223.657 191.705C221.968 191.705 220.488 192.692 220.488 194.693V195.93H218.841V197.598H220.488V206.604H222.573V197.598H224.873V195.93ZM227.017 206.604H229.095V195.93H227.017V206.604ZM228.066 194.283C228.782 194.283 229.38 193.727 229.38 193.046C229.38 192.365 228.782 191.802 228.066 191.802C227.344 191.802 226.753 192.365 226.753 193.046C226.753 193.727 227.344 194.283 228.066 194.283ZM233.968 192.372H231.89V206.604H233.968V192.372ZM241.363 206.819C243.691 206.819 245.338 205.672 245.811 203.935L243.844 203.581C243.469 204.588 242.565 205.103 241.384 205.103C239.605 205.103 238.41 203.949 238.354 201.892H245.943V201.155C245.943 197.299 243.636 195.791 241.217 195.791C238.243 195.791 236.283 198.056 236.283 201.336C236.283 204.651 238.215 206.819 241.363 206.819ZM238.361 200.335C238.445 198.821 239.543 197.507 241.231 197.507C242.843 197.507 243.9 198.702 243.907 200.335H238.361Z" fill="#E4E4E4" fill-opacity="0.25"/>
</g>
<rect x="37.9607" y="170.228" width="290.078" height="58.5403" rx="5.59099" stroke="#E4E4E4" stroke-opacity="0.25" stroke-width="2.7955" stroke-linejoin="round" stroke-dasharray="6.99 6.99"/>
<rect x="36.3179" y="648.726" width="293.363" height="59.4905" rx="6.98874" fill="#E4E4E4" fill-opacity="0.25"/>
<path d="M135.329 671.285V680.368C135.329 682.154 134.085 683.432 132.132 683.432C130.173 683.432 128.936 682.154 128.936 680.368V671.285H126.358V680.583C126.358 683.641 128.651 685.733 132.132 685.733C135.6 685.733 137.907 683.641 137.907 680.583V671.285H135.329ZM140.598 689.52H143.113V683.835H143.218C143.614 684.614 144.441 685.705 146.275 685.705C148.791 685.705 150.674 683.71 150.674 680.194C150.674 676.636 148.735 674.704 146.268 674.704C144.385 674.704 143.6 675.837 143.218 676.608H143.072V674.843H140.598V689.52ZM143.065 680.18C143.065 678.109 143.954 676.768 145.573 676.768C147.248 676.768 148.11 678.193 148.11 680.18C148.11 682.182 147.234 683.641 145.573 683.641C143.968 683.641 143.065 682.251 143.065 680.18ZM155.344 671.285H152.828V685.517H155.344V671.285ZM162.586 685.726C165.713 685.726 167.701 683.523 167.701 680.222C167.701 676.914 165.713 674.704 162.586 674.704C159.459 674.704 157.472 676.914 157.472 680.222C157.472 683.523 159.459 685.726 162.586 685.726ZM162.6 683.71C160.87 683.71 160.022 682.168 160.022 680.215C160.022 678.262 160.87 676.699 162.6 676.699C164.303 676.699 165.151 678.262 165.151 680.215C165.151 682.168 164.303 683.71 162.6 683.71ZM172.907 685.733C174.582 685.733 175.583 684.947 176.041 684.051H176.125V685.517H178.543V678.373C178.543 675.552 176.243 674.704 174.207 674.704C171.962 674.704 170.239 675.705 169.683 677.651L172.032 677.984C172.282 677.255 172.991 676.629 174.221 676.629C175.388 676.629 176.028 677.227 176.028 678.276V678.318C176.028 679.041 175.27 679.075 173.387 679.277C171.316 679.499 169.336 680.118 169.336 682.522C169.336 684.621 170.871 685.733 172.907 685.733ZM173.561 683.884C172.511 683.884 171.761 683.405 171.761 682.48C171.761 681.514 172.602 681.111 173.727 680.952C174.388 680.861 175.708 680.694 176.034 680.43V681.688C176.034 682.876 175.076 683.884 173.561 683.884ZM185.033 685.705C186.868 685.705 187.695 684.614 188.091 683.835H188.244V685.517H190.718V671.285H188.195V676.608H188.091C187.709 675.837 186.924 674.704 185.04 674.704C182.574 674.704 180.635 676.636 180.635 680.194C180.635 683.71 182.518 685.705 185.033 685.705ZM185.735 683.641C184.075 683.641 183.199 682.182 183.199 680.18C183.199 678.193 184.061 676.768 185.735 676.768C187.354 676.768 188.244 678.109 188.244 680.18C188.244 682.251 187.341 683.641 185.735 683.641ZM203.186 685.517C207.522 685.517 210.093 682.835 210.093 678.387C210.093 673.954 207.522 671.285 203.283 671.285H198.363V685.517H203.186ZM200.942 683.286V673.516H203.137C206.028 673.516 207.536 675.128 207.536 678.387C207.536 681.66 206.028 683.286 203.061 683.286H200.942ZM215.503 685.733C217.178 685.733 218.179 684.947 218.637 684.051H218.721V685.517H221.139V678.373C221.139 675.552 218.839 674.704 216.803 674.704C214.558 674.704 212.835 675.705 212.279 677.651L214.628 677.984C214.878 677.255 215.587 676.629 216.817 676.629C217.984 676.629 218.623 677.227 218.623 678.276V678.318C218.623 679.041 217.866 679.075 215.983 679.277C213.912 679.499 211.931 680.118 211.931 682.522C211.931 684.621 213.467 685.733 215.503 685.733ZM216.156 683.884C215.107 683.884 214.357 683.405 214.357 682.48C214.357 681.514 215.197 681.111 216.323 680.952C216.983 680.861 218.304 680.694 218.63 680.43V681.688C218.63 682.876 217.671 683.884 216.156 683.884ZM228.998 674.843H226.893V672.286H224.377V674.843H222.862V676.789H224.377V682.724C224.363 684.732 225.823 685.719 227.713 685.663C228.428 685.642 228.922 685.503 229.193 685.413L228.769 683.446C228.63 683.481 228.345 683.544 228.032 683.544C227.4 683.544 226.893 683.321 226.893 682.307V676.789H228.998V674.843ZM234.174 685.733C235.848 685.733 236.849 684.947 237.308 684.051H237.391V685.517H239.809V678.373C239.809 675.552 237.509 674.704 235.473 674.704C233.228 674.704 231.505 675.705 230.949 677.651L233.298 677.984C233.548 677.255 234.257 676.629 235.487 676.629C236.654 676.629 237.294 677.227 237.294 678.276V678.318C237.294 679.041 236.536 679.075 234.653 679.277C232.582 679.499 230.602 680.118 230.602 682.522C230.602 684.621 232.137 685.733 234.174 685.733ZM234.827 683.884C233.777 683.884 233.027 683.405 233.027 682.48C233.027 681.514 233.868 681.111 234.994 680.952C235.654 680.861 236.974 680.694 237.301 680.43V681.688C237.301 682.876 236.342 683.884 234.827 683.884Z" fill="#E4E4E4" fill-opacity="0.25"/>
<rect x="36.3179" y="320.405" width="256.2" height="25.0768" rx="6.98874" fill="#2C2F38"/>
<rect x="36.3179" y="369.49" width="146.682" height="25.0768" rx="6.98874" fill="#2C2F38"/>
<rect x="36.3179" y="418.576" width="203.098" height="25.0768" rx="6.98874" fill="#2C2F38"/>
<rect x="36.3179" y="467.661" width="293.118" height="103.16" rx="6.98874" fill="#2C2F38"/>
</svg>
